# xmcd
#
# Track frame offsets:
#	150
#	10088
#	22460
#	34050
#	44678
#	58160
#	70863
#	79048
#	90080
#	102533
#	114450
#	129263
#	141178
#	151838
#
# Disc length: 2163 seconds
#
# Revision: 4
# Processed by: cddbd v1.5.2PL0 Copyright (c) Steve Scherf et al.
# Submitted via: audiograbber 1.82.01
#
DISCID=b608710e
DTITLE=Various Artist - Country's Greatest Hits, CD 2
DYEAR=1991
DGENRE=Country
TTITLE0=Johnny Russell - In A Mansion Stands My Love
TTITLE1=Willie Nelson - Shelter Of Your Arms
TTITLE2=Jeannie C. Riley - Before The Next Teardrop Falls
TTITLE3=Jimmy C. Newman - A Fallen Star
TTITLE4=Anita Perras - Hello Again
TTITLE5=Frankie Laine - High Noon
TTITLE6=Johnny Cash - Guess Things Happen That Way
TTITLE7=George Jones - Say It's Not You
TTITLE8=Randy Travis - Dreamin'
TTITLE9=Lucille Starr - Crazy Arms (Dans tes bras)
TTITLE10=Gary Fjellgaard - Dance With This Old Cowboy
TTITLE11=Patti Page - Mockingbird Hill
TTITLE12=Charlie Rich - Who Will The Next Fool Be
TTITLE13=Bill Justis - Raunchy
EXTD=
EXTT0=
EXTT1=
EXTT2=
EXTT3=
EXTT4=
EXTT5=
EXTT6=
EXTT7=
EXTT8=
EXTT9=
EXTT10=
EXTT11=
EXTT12=
EXTT13=
PLAYORDER=
